<svg width="64" height="64" viewBox="0 0 64 64" fill="none" xmlns="http://www.w3.org/2000/svg">
  <defs>
    <linearGradient id="g" x1="0" y1="0" x2="64" y2="64" gradientUnits="userSpaceOnUse">
      <stop stop-color="#1D1D1F"/>
      <stop offset="1" stop-color="#3A3A3D"/>
    </linearGradient>
  </defs>
  <rect width="64" height="64" rx="15" fill="url(#g)"/>
  <path d="M18 44V20h9.5c4.7 0 7.8 2.6 7.8 6.9 0 3-1.6 5.2-4.2 6.2L37 44h-5.6l-5.1-9.6H23V44h-5Zm5-14h4c2 0 3.2-1 3.2-2.9S29 24.2 27 24.2h-4V30Z" fill="#fff"/>
  <path d="M40 44l6.4-19.8h-6V20H52v2.2L45.6 42H52v2.9H40V44Z" fill="#fff" opacity="0.92"/>
</svg>
